Genre:Comedy
Language:English  http://www.imdb.com/title/tt1231583/
Source:BluRay.x264-CROSSBOW
Subtitles:Romana


Format : MPEG-4
Format profile : Base Media
Codec ID : isom
File size : 2.23 GiB
Duration : 1h 35mn
Overall bit rate : 3 356 Kbps


Video
Format settings, CABAC : Yes
Format settings, ReFrames : 3 frames
Codec ID : avc1
Codec ID/Info : Advanced Video Coding
Duration : 1h 35mn
Bit rate mode : Variable
Bit rate : 2 982 Kbps
Maximum bit rate : 16.0 Mbps
Width : 1 280 pixels
Height : 528 pixels
Display aspect ratio : 2.40:1
Frame rate mode : Constant
Frame rate : 23.976 fps
Color space : YUV
Chroma subsampling : 4:2:0
Bit depth : 8 bits
Scan type : Progressive
Bits/(Pixel*Frame) : 0.184
Stream size : 1.94 GiB (87%)
Writing library : x264


Audio
ID : 2
Format : AAC
Format/Info : Advanced Audio Codec
Format version : Version 4
Format profile : LC
Format settings, SBR : No
Codec ID : 40
Duration : 1h 35mn
Bit rate mode : Variable
Bit rate : 442 Kbps
Maximum bit rate : 541 Kbps
Channel(s) : 6 channels
Channel positions : Front: L C R, Side: L R, LFE
Sampling rate : 48.0 KHz
Stream size : 301 MiB (13%)



Plot:
High-strung father-to-be Peter Highman is forced to hitch a ride with aspiring actor Ethan Tremblay on a road trip in order to make it to his child's birth on time
 
http://rapidhdd.com/images/664021vlcsnap-00001.png 
http://www.rapidhdd.com/images/428400vlcsnap-00002.png 
http://www.rapidhdd.com/images/51057vlcsnap-00003.png 
http://www.rapidhdd.com/images/260070vlcsnap-00004.png 
http://www.rapidhdd.com/images/26548vlcsnap-00007.png 
http://www.rapidhdd.com/images/303511vlcsnap-00005.png